<svg xmlns="http://www.w3.org/2000/svg" viewBox="0 0 60 40" width="60" height="40"><defs><clipPath id="pa"><rect width="60" height="40" rx="4"/></clipPath></defs><g clip-path="url(#pa)"><rect width="60" height="40" fill="#fff"/><rect x="30" y="0" width="30" height="20" fill="#D21034"/><rect x="0" y="20" width="30" height="20" fill="#005293"/><path transform="translate(15,10) scale(0.9)" fill="#005293" d="M0,-7 L1.6,-2.2 6.7,-2.2 2.5,0.85 4.1,5.7 0,2.6 -4.1,5.7 -2.5,0.85 -6.7,-2.2 -1.6,-2.2 Z"/><path transform="translate(45,30) scale(0.9)" fill="#D21034" d="M0,-7 L1.6,-2.2 6.7,-2.2 2.5,0.85 4.1,5.7 0,2.6 -4.1,5.7 -2.5,0.85 -6.7,-2.2 -1.6,-2.2 Z"/></g><rect x="0.5" y="0.5" width="59" height="39" rx="4" fill="none" stroke="#e3e8e6"/></svg>